# xmcd CD database file
#
# Track frame offsets:
#	150
#	17060
#	41724
#	74979
#	100476
#	128217
#	151459
#	194251
#	218175
#	246172
#
# Disc length: 3657 seconds
#
# Revision: 1
# Processed by: cddbd v1.5.2PL0 Copyright (c) Steve Scherf et al.
# Submitted via: CDex 1.70beta3
#
DISCID=980e470a
DTITLE=Winterhawk - Revival
DYEAR=1982
DGENRE=Hard Rock
TTITLE0=Intro
TTITLE1=Sanctuary
TTITLE2=Period Of Change
TTITLE3=Can't See The Forest For The Trees
TTITLE4=Revival
TTITLE5=Ace In The Hole
TTITLE6=Free To Live
TTITLE7=Fallen Dinosaur
TTITLE8=Elijah
TTITLE9=Hammer And The Axe
EXTD=YEAR: 1982
EXTT0=
EXTT1=
EXTT2=
EXTT3=
EXTT4=
EXTT5=
EXTT6=
EXTT7=
EXTT8=
EXTT9=
PLAYORDER=
